<?xml version="1.0" encoding="utf-8"?>
<!-- Generator: Adobe Illustrator 19.1.0, SVG Export Plug-In . SVG Version: 6.00 Build 0)  -->
<svg version="1.1" id="Layer_1" xmlns="http://www.w3.org/2000/svg" xmlns:xlink="http://www.w3.org/1999/xlink" x="0px" y="0px"
	 viewBox="15 -75 120 228" style="enable-background:new 15 -75 120 228;" xml:space="preserve">
<style type="text/css">
	.st0{fill:#C8B9C9;}
	.st1{fill:#FFBA49;}
	.st2{fill:#98BFF9;}
	.st3{fill:none;stroke:#FFFFFF;stroke-miterlimit:10;}
</style>
<path class="st0" d="M63-50.3l4.4-5.1L79.3-57l3.2,5.2l5,2.7l5,17.6l-7.3,2.6l-11.7-1.3l-13.7,0.5l-2-8.1l3-1.8l0.9-10.5L63-50.3
	L63-50.3z"/>
<g>
	<path class="st1" d="M19.4-71.6h110.2v6.3H19.4V-71.6z"/>
</g>
<g>
	<path class="st1" d="M48.3-18.4h55.1v3.1H48.3V-18.4z"/>
</g>
<rect x="27.7" y="-5.2" class="st2" width="25" height="29.7"/>
<rect x="28.9" y="25.8" class="st1" width="22.6" height="0.8"/>
<rect x="30.8" y="27" class="st1" width="18.3" height="0.8"/>
<rect x="28.9" y="28.2" class="st1" width="22.6" height="0.7"/>
<rect x="26.4" y="-7.9" class="st3" width="27.2" height="39.2"/>
<rect x="63.5" y="-5.2" class="st2" width="25" height="29.7"/>
<rect x="64.7" y="25.8" class="st1" width="22.6" height="0.8"/>
<rect x="66.6" y="27" class="st1" width="18.3" height="0.8"/>
<rect x="64.7" y="28.2" class="st1" width="22.6" height="0.7"/>
<rect x="62.2" y="-7.9" class="st3" width="27.2" height="39.2"/>
<rect x="98.8" y="-4.5" class="st2" width="25" height="29.7"/>
<rect x="100" y="26.5" class="st1" width="22.6" height="0.8"/>
<rect x="101.9" y="27.7" class="st1" width="18.3" height="0.8"/>
<rect x="100" y="28.9" class="st1" width="22.6" height="0.7"/>
<rect x="97.5" y="-8" class="st3" width="27.2" height="39.2"/>
<rect x="27.4" y="44.3" class="st2" width="25" height="29.7"/>
<rect x="28.7" y="72.3" class="st1" width="22.6" height="0.8"/>
<rect x="30.5" y="73.5" class="st1" width="18.3" height="0.8"/>
<rect x="28.6" y="74.7" class="st1" width="22.6" height="0.7"/>
<rect x="26.1" y="41.6" class="st3" width="27.2" height="39.2"/>
<rect x="63.2" y="44.3" class="st2" width="25" height="29.7"/>
<rect x="64.5" y="72.3" class="st1" width="22.6" height="0.8"/>
<rect x="66.4" y="73.5" class="st1" width="18.3" height="0.8"/>
<rect x="64.4" y="74.7" class="st1" width="22.6" height="0.7"/>
<rect x="98.5" y="45" class="st2" width="25" height="29.7"/>
<rect x="99.8" y="73" class="st1" width="22.6" height="0.8"/>
<rect x="101.7" y="74.2" class="st1" width="18.3" height="0.8"/>
<rect x="99.7" y="75.4" class="st1" width="22.6" height="0.7"/>
<rect x="97.2" y="41.6" class="st3" width="27.2" height="39.2"/>
<rect x="27.6" y="89.1" class="st2" width="25" height="29.7"/>
<rect x="28.8" y="120.1" class="st1" width="22.6" height="0.8"/>
<rect x="30.7" y="121.3" class="st1" width="18.3" height="0.8"/>
<rect x="28.8" y="122.5" class="st1" width="22.6" height="0.7"/>
<rect x="26.3" y="86.4" class="st3" width="27.2" height="39.2"/>
<rect x="63.4" y="89.1" class="st2" width="25" height="29.7"/>
<rect x="64.6" y="120.1" class="st1" width="22.6" height="0.8"/>
<rect x="66.5" y="121.3" class="st1" width="18.3" height="0.8"/>
<rect x="64.6" y="122.5" class="st1" width="22.6" height="0.7"/>
<rect x="62.1" y="86.4" class="st3" width="27.2" height="39.2"/>
<rect x="98.7" y="89.8" class="st2" width="25" height="29.7"/>
<rect x="99.9" y="120.8" class="st1" width="22.6" height="0.8"/>
<rect x="101.8" y="122" class="st1" width="18.3" height="0.8"/>
<rect x="99.9" y="123.2" class="st1" width="22.6" height="0.7"/>
<rect x="97.4" y="86.4" class="st3" width="27.2" height="39.2"/>
</svg>
